<?xml version="1.0" encoding="UTF-8"?>
<svg class="zisk" viewBox="0 0 1500 360" xmlns="http://www.w3.org/2000/svg">
  <defs>
    <style><![CDATA[
@import url('https://fonts.googleapis.com/css2?family=IBM+Plex+Sans:wght@400;500;600;700&family=IBM+Plex+Mono:wght@400;500;600&display=swap');
text { font-family: 'IBM Plex Sans', -apple-system, BlinkMacSystemFont, 'Segoe UI', sans-serif; }
.n-art rect { fill: #007755; stroke: #00553D; stroke-width: 1; }
.n-art text.name { fill: #FFFFFF; font-weight: 600; font-size: 14px; }
.n-art text.kind { fill: #B9F0CF; font-family: 'IBM Plex Mono', monospace; font-size: 9px; letter-spacing: 0.18em; text-transform: uppercase; }
.n-out rect { fill: #B9F0CF; stroke: #00B359; stroke-width: 1.2; }
.n-out text.name { fill: #15161D; font-weight: 600; font-size: 14px; }
.n-out text.kind { fill: #007755; font-family: 'IBM Plex Mono', monospace; font-size: 9px; letter-spacing: 0.18em; text-transform: uppercase; }
.edge { fill: none; stroke: #15161D; stroke-width: 1.4; }
.edge-label { font-family: 'IBM Plex Mono', monospace; font-size: 11px; fill: #4A4C59; }
    ]]></style>
    <marker id="arr38" viewBox="0 0 10 10" refX="9" refY="5" markerWidth="6" markerHeight="6" orient="auto"><path d="M0,0 L9,5 L0,10 z" fill="#15161D"/></marker>
  </defs>

  <g class="n-art" transform="translate(20,150)"><rect width="180" height="80" rx="8"/><text class="kind" x="90" y="22" text-anchor="middle">artifact</text><text class="name" x="90" y="50" text-anchor="middle">Rust source</text></g>
  <g class="n-art" transform="translate(260,150)"><rect width="180" height="80" rx="8"/><text class="kind" x="90" y="22" text-anchor="middle">artifact</text><text class="name" x="90" y="50" text-anchor="middle">RISC-V ELF</text></g>
  <g class="n-art" transform="translate(500,40)"><rect width="180" height="80" rx="8"/><text class="kind" x="90" y="22" text-anchor="middle">artifact</text><text class="name" x="90" y="50" text-anchor="middle">proving key</text></g>
  <g class="n-art" transform="translate(500,260)"><rect width="180" height="80" rx="8"/><text class="kind" x="90" y="22" text-anchor="middle">artifact</text><text class="name" x="90" y="50" text-anchor="middle">trace</text></g>
  <g class="n-art" transform="translate(760,150)"><rect width="180" height="80" rx="8"/><text class="kind" x="90" y="22" text-anchor="middle">artifact</text><text class="name" x="90" y="50" text-anchor="middle">STARK proof</text></g>
  <g class="n-art" transform="translate(1020,150)"><rect width="220" height="80" rx="8"/><text class="kind" x="110" y="22" text-anchor="middle">artifact</text><text class="name" x="110" y="46" text-anchor="middle">PLONK / minimal</text><text class="name" x="110" y="62" text-anchor="middle">STARK</text></g>
  <g class="n-out" transform="translate(1320,150)"><rect width="160" height="80" rx="8"/><text class="kind" x="80" y="22" text-anchor="middle">terminal</text><text class="name" x="80" y="50" text-anchor="middle">verified</text></g>

  <path class="edge" d="M 200 190 L 260 190" marker-end="url(#arr38)"/>
  <text class="edge-label" x="230" y="178" text-anchor="middle">compile</text>

  <path class="edge" d="M 440 175 C 470 175, 480 80, 500 80" marker-end="url(#arr38)"/>
  <text class="edge-label" x="475" y="125" text-anchor="middle">setup</text>

  <path class="edge" d="M 440 205 C 470 205, 480 300, 500 300" marker-end="url(#arr38)"/>
  <text class="edge-label" x="475" y="260" text-anchor="middle">execute / prove</text>

  <path class="edge" d="M 680 80 C 720 80, 740 290, 760 200" marker-end="url(#arr38)"/>
  <path class="edge" d="M 680 300 C 720 300, 740 200, 760 200" marker-end="url(#arr38)"/>
  <text class="edge-label" x="730" y="170" text-anchor="middle">prove</text>

  <path class="edge" d="M 940 190 L 1020 190" marker-end="url(#arr38)"/>
  <text class="edge-label" x="980" y="178" text-anchor="middle">wrap</text>

  <path class="edge" d="M 1240 190 L 1320 190" marker-end="url(#arr38)"/>
  <text class="edge-label" x="1280" y="178" text-anchor="middle">verify</text>
</svg>
