<svg width="120" height="54" viewBox="0 0 120 54" fill="none" xmlns="http://www.w3.org/2000/svg">
<g clip-path="url(#clip0_31_309)">
<path d="M45.2395 14.1892C43.7483 14.1892 42.4773 14.7207 41.4267 15.7815C40.3761 16.8446 39.8531 18.1284 39.8531 19.6396C39.8531 21.1509 40.3784 22.4347 41.4267 23.4977C42.4751 24.5608 43.746 25.0901 45.2395 25.0901C46.7331 25.0901 48.0018 24.5585 49.0501 23.4977C50.0985 22.4369 50.6238 21.1509 50.6238 19.6396C50.6238 18.1284 50.0985 16.8446 49.0501 15.7815C47.9995 14.7207 46.7308 14.1892 45.2395 14.1892Z" fill="url(#paint0_linear_31_309)"/>
<path d="M52.4467 53.7748H75.5372C77.5828 53.7748 79.448 53.2748 81.1307 52.2793C82.8134 51.2815 84.1556 49.9437 85.1527 48.2658C85.6313 47.4595 85.9941 46.6171 86.2434 45.732L60.3417 45.7725C55.9791 45.7793 52.4467 49.3604 52.4467 53.7748Z" fill="url(#paint1_linear_31_309)"/>
<path d="M120 0H109.539L86.4415 30.9324H64.6664C63.9853 30.8356 63.3888 30.5473 62.8768 30.0608C62.2403 29.4549 61.922 28.723 61.922 27.8649V26.2432C61.922 25.4099 62.2403 24.6982 62.8768 24.1036C63.5134 23.5113 64.2791 23.214 65.1783 23.214H78.4731C82.8334 23.214 86.368 19.6374 86.368 15.2252H65.1783C63.1328 15.2252 61.2676 15.7185 59.5849 16.7027C57.8999 17.6869 56.5533 19.0113 55.5428 20.6779C54.5323 22.3446 54.027 24.1982 54.027 26.2432V27.8649C54.027 29.8851 54.5323 31.7342 55.5428 33.4122C56.5533 35.0901 57.8999 36.4279 59.5849 37.4257C61.0472 38.2928 62.6476 38.7815 64.3837 38.8941V38.9212H65.165C65.165 38.9212 65.1739 38.9212 65.1783 38.9212H85.7314L97.2522 53.5495H108.29L93.0276 34.9076L120 0Z" fill="url(#paint2_linear_31_309)"/>
<path d="M40.6054 39.2433V46H11.4918L46.1032 0.0540693H7.93055C5.76039 0.0540693 3.72378 1.05182 2.30149 2.49101C0.879194 3.92794 0 5.91668 0 8.11263H30.1953L0.890323 46.9505C0.311613 47.7162 0 48.6509 0 49.6126C0 50.8243 0.485226 51.9212 1.26871 52.7162C2.05442 53.509 3.13616 54 4.33365 54H38.8292C39.1008 54 39.3679 53.9842 39.6327 53.9572C43.6347 53.5473 49.2059 50.1306 49.2059 45.973V31.2162C44.8256 31.2162 40.6054 34.8108 40.6054 39.2433ZM5.83607 45.946L34.1261 8.10812H35.7999L7.50988 45.946H5.83607Z" fill="url(#paint3_linear_31_309)"/>
</g>
<defs>
<linearGradient id="paint0_linear_31_309" x1="124.168" y1="32.9998" x2="24.2536" y2="13.1941" gradientUnits="userSpaceOnUse">
<stop stop-color="#F4FF00"/>
<stop offset="1" stop-color="#00FF7C"/>
</linearGradient>
<linearGradient id="paint1_linear_31_309" x1="124.168" y1="32.9998" x2="24.2536" y2="13.1941" gradientUnits="userSpaceOnUse">
<stop stop-color="#F4FF00"/>
<stop offset="1" stop-color="#00FF7C"/>
</linearGradient>
<linearGradient id="paint2_linear_31_309" x1="124.168" y1="32.9998" x2="24.2536" y2="13.1941" gradientUnits="userSpaceOnUse">
<stop stop-color="#F4FF00"/>
<stop offset="1" stop-color="#00FF7C"/>
</linearGradient>
<linearGradient id="paint3_linear_31_309" x1="124.168" y1="32.9998" x2="24.2536" y2="13.1941" gradientUnits="userSpaceOnUse">
<stop stop-color="#F4FF00"/>
<stop offset="1" stop-color="#00FF7C"/>
</linearGradient>
<clipPath id="clip0_31_309">
<rect width="120" height="54" fill="white"/>
</clipPath>
</defs>
</svg>
